<?xml version="1.0" standalone="no"?>
<!DOCTYPE svg PUBLIC "-//W3C//DTD SVG 20010904//EN"
 "http://www.w3.org/TR/2001/REC-SVG-20010904/DTD/svg10.dtd">
<svg version="1.0" xmlns="http://www.w3.org/2000/svg"
 width="480.000000pt" height="480.000000pt" viewBox="0 0 480.000000 480.000000"
 preserveAspectRatio="xMidYMid meet">

<g transform="translate(0.000000,480.000000) scale(0.100000,-0.100000)"
fill="#000000" stroke="none">
<path d="M0 2400 l0 -2400 2400 0 2400 0 0 2400 0 2400 -2400 0 -2400 0 0
-2400z m2043 1244 c18 -9 105 -59 195 -111 l162 -95 163 95 c200 116 220 127
248 127 24 0 449 -241 471 -267 10 -12 14 -75 18 -246 l5 -230 180 -103 c99
-57 190 -115 202 -129 23 -26 23 -31 23 -280 0 -161 -4 -263 -11 -278 -7 -16
-75 -61 -202 -134 l-192 -110 -5 -231 c-5 -215 -6 -233 -25 -251 -11 -10 -96
-63 -190 -117 -93 -54 -188 -108 -210 -121 -22 -12 -52 -23 -67 -23 -16 0
-103 44 -217 110 l-191 111 -190 -111 c-117 -68 -200 -110 -217 -110 -28 0
-437 229 -471 264 -15 14 -18 50 -22 248 l-5 231 -180 103 c-99 57 -189 113
-200 124 -19 20 -20 33 -20 290 0 257 1 270 20 290 11 11 101 67 200 124 l180
103 5 231 c4 194 8 234 21 247 30 30 444 265 467 265 13 0 37 -7 55 -16z"/>
<path d="M1831 3386 l-160 -91 0 -190 0 -190 156 -88 c92 -52 163 -87 174 -84
10 3 86 44 168 92 l151 88 0 134 c0 154 9 147 -100 83 -66 -38 -69 -42 -72
-81 -3 -40 -5 -43 -80 -86 l-77 -44 -75 43 -75 43 -1 91 0 90 75 42 c73 41 77
42 105 27 16 -8 34 -15 41 -15 19 0 159 84 156 93 -1 5 -53 37 -114 72 l-112
63 -160 -92z"/>
<path d="M2645 3385 l-160 -92 -3 -185 -2 -185 150 -88 c83 -48 159 -89 169
-92 16 -4 241 114 241 127 0 3 -37 26 -83 52 l-82 47 -33 -21 -32 -20 -78 45
-77 45 0 88 0 89 77 43 76 43 76 -42 c75 -42 76 -43 76 -83 0 -34 5 -44 28
-56 15 -9 53 -31 85 -49 l57 -32 0 138 0 138 -97 55 c-54 30 -127 71 -163 91
l-65 36 -160 -92z"/>
<path d="M2237 2679 l-157 -91 2 -190 3 -189 158 -91 157 -91 158 91 157 91 3
189 2 190 -148 86 c-82 47 -155 88 -163 91 -8 3 -85 -36 -172 -86z"/>
<path d="M3048 2677 l-158 -92 0 -185 0 -185 111 -65 c62 -36 116 -66 120 -68
5 -2 9 41 9 95 l0 99 -35 17 -35 17 0 88 0 88 74 42 c40 23 78 42 84 42 6 0
42 -18 81 -41 l71 -41 0 -88 0 -88 -35 -21 -35 -20 0 -96 c0 -53 4 -95 8 -93
5 2 59 32 120 68 l112 64 0 186 0 185 -160 93 c-87 50 -163 92 -167 92 -4 -1
-79 -42 -165 -93z"/>
<path d="M1373 2652 l-113 -67 0 -185 0 -186 159 -92 c88 -51 163 -92 167 -92
4 0 78 42 165 93 l159 92 0 185 0 185 -112 65 c-62 36 -116 67 -120 68 -4 2
-8 -41 -8 -95 l0 -98 35 -19 35 -19 0 -88 0 -87 -78 -44 -79 -45 -76 45 -77
44 0 88 0 88 35 21 35 20 0 96 c0 52 -3 95 -7 94 -5 -1 -59 -31 -120 -67z"/>
<path d="M1868 1997 c-59 -34 -107 -64 -108 -67 0 -3 37 -26 82 -52 l82 -47
34 19 33 20 77 -44 77 -44 0 -87 0 -88 -73 -44 c-41 -24 -76 -43 -79 -43 -3 0
-39 19 -79 42 -73 41 -74 43 -74 82 0 34 -5 44 -28 56 -15 9 -53 31 -84 49
l-58 32 0 -138 1 -138 160 -92 161 -93 162 94 161 94 3 185 2 184 -158 92
c-88 50 -165 91 -173 90 -8 0 -62 -28 -121 -62z"/>
<path d="M2638 1969 l-158 -91 0 -135 c0 -154 -9 -147 100 -83 66 38 69 42 72
81 3 40 5 43 80 85 l78 44 75 -42 74 -43 1 -91 0 -90 -76 -43 c-75 -43 -77
-43 -104 -27 -16 9 -34 16 -41 16 -15 0 -159 -83 -159 -92 0 -3 51 -36 114
-72 l114 -65 161 92 160 92 0 190 0 190 -151 85 c-83 47 -158 86 -167 87 -9 2
-87 -38 -173 -88z"/>
</g>
</svg>
