<svg xmlns="http://www.w3.org/2000/svg" viewBox="0 0 24 24">
  <path fill="currentColor" d="M23.875 11.063c-.396-5.693-4.611-10.186-10.392-10.942C7.701-.635 1.98 3.236.717 8.209c-.458 1.408.518 2.81 2.06 2.81.936 0 1.776-.596 2.063-1.476.777-2.344 3.158-6.6 9.203-6.6 8.172 0 9.832 8.12 9.832 8.12zM6.847 13.024v-3.197c0-.063.012-.126.035-.186.023-.059.056-.116.098-.167.041-.052.09-.096.145-.131.055-.035.115-.061.177-.078.062-.016.127-.024.191-.024h.803c.063 0 .128.008.191.024.062.017.122.043.177.078.055.035.104.079.145.131.042.051.075.108.098.167.023.06.035.123.035.186v8.096c0 .063-.012.126-.035.186-.023.059-.056.116-.098.167-.041.052-.09.096-.145.131-.055.035-.115.061-.177.078-.063.016-.128.024-.191.024h-.803c-.064 0-.129-.008-.191-.024-.062-.017-.122-.043-.177-.078-.055-.035-.104-.079-.145-.131-.042-.051-.075-.108-.098-.167-.023-.06-.035-.123-.035-.186v-4.872zm4.724 0v4.872c0 .063-.012.126-.035.186-.023.059-.056.116-.098.167-.041.052-.09.096-.145.131-.055.035-.115.061-.177.078-.063.016-.128.024-.191.024h-.803c-.064 0-.129-.008-.191-.024-.062-.017-.122-.043-.177-.078-.055-.035-.104-.079-.145-.131-.042-.051-.075-.108-.098-.167-.023-.06-.035-.123-.035-.186V8.827c0-.063.012-.126.035-.186.023-.059.056-.116.098-.167.041-.052.09-.096.145-.131.055-.035.115-.061.177-.078.062-.016.127-.024.191-.024h.803c.063 0 .128.008.191.024.062.017.122.043.177.078.055.035.104.079.145.131.042.051.075.108.098.167.023.06.035.123.035.186v4.197zm2.424 2.515c1.159 0 2.098-.924 2.098-2.064s-.939-2.064-2.098-2.064c-1.159 0-2.098.924-2.098 2.064s.939 2.064 2.098 2.064zm0 3.064c1.034 0 2.014-.406 2.718-1.129.705-.723 1.1-1.703 1.1-2.718v-2.711c0-.063-.012-.126-.035-.186-.023-.059-.056-.116-.098-.167-.041-.052-.09-.096-.145-.131-.055-.035-.115-.061-.177-.078-.063-.016-.128-.024-.191-.024h-.803c-.064 0-.129.008-.191.024-.062.017-.122.043-.177.078-.055.035-.104.079-.145.131-.042.051-.075.108-.098.167-.023.06-.035.123-.035.186v.117l-.048-.117c-.227-.541-.589-1.024-1.047-1.396-.458-.372-1.017-.603-1.612-.667-.596-.064-1.195.02-1.729.243-.534.223-.989.581-1.314 1.034-.326.453-.511.985-.534 1.536-.023.551.107 1.098.377 1.579.27.481.661.878 1.129 1.147.468.268 1.001.396 1.538.369v1.243c0 .063.012.126.035.186.023.059.056.116.098.167.041.052.09.096.145.131.055.035.115.061.177.078.063.016.128.024.191.024h.803c.063 0 .128-.008.191-.024.062-.017.122-.043.177-.078.055-.035.104-.079.145-.131.042-.051.075-.108.098-.167.023-.06.035-.123.035-.186v-1.243c.537.027 1.07-.101 1.538-.369.468-.269.859-.666 1.129-1.147.27-.481.4-1.028.377-1.579-.023-.551-.208-1.083-.534-1.536-.325-.453-.78-.811-1.314-1.034-.534-.223-1.133-.307-1.729-.243-.595.064-1.154.295-1.612.667-.458.372-.82.855-1.047 1.396-.388.957-.388 2.025 0 2.982.227.541.589 1.024 1.047 1.396.458.372 1.017.603 1.612.667.595.064 1.195-.02 1.729-.243.534-.223.989-.581 1.314-1.034.325-.453.511-.985.534-1.536.023-.551-.107-1.098-.377-1.579v2.334c0 .785-.312 1.538-.867 2.093-.555.556-1.308.868-2.094.868h-.201c-.632-.09-1.238-.329-1.781-.703l-.102-.071-.102.071c-.543.374-1.149.613-1.781.703h-.201c-.786 0-1.539-.312-2.094-.868-.555-.555-.867-1.308-.867-2.093v-2.711c0-.063-.012-.126-.035-.186-.023-.059-.056-.116-.098-.167-.041-.052-.09-.096-.145-.131-.055-.035-.115-.061-.177-.078-.063-.016-.128-.024-.191-.024h-.803c-.064 0-.129.008-.191.024-.062.017-.122.043-.177.078-.055.035-.104.079-.145.131-.042.051-.075.108-.098.167-.023.06-.035.123-.035.186v2.711c0 1.015.395 1.995 1.1 2.718.704.723 1.684 1.129 2.718 1.129h.803c.063 0 .128-.008.191-.024.062-.017.122-.043.177-.078.055-.035.104-.079.145-.131.042-.051.075-.108.098-.167.023-.06.035-.123.035-.186v-1.243c.537.027 1.07-.101 1.538-.369.468-.269.859-.666 1.129-1.147.27-.481.4-1.028.377-1.579-.023-.551-.208-1.083-.534-1.536-.325-.453-.78-.811-1.314-1.034-.534-.223-1.133-.307-1.729-.243-.595.064-1.154.295-1.612.667-.458.372-.82.855-1.047 1.396l-.048.117v-.117c0-.063-.012-.126-.035-.186-.023-.059-.056-.116-.098-.167-.041-.052-.09-.096-.145-.131-.055-.035-.115-.061-.177-.078-.063-.016-.128-.024-.191-.024h-.803c-.064 0-.129.008-.191.024-.062.017-.122.043-.177.078-.055.035-.104.079-.145.131-.042.051-.075.108-.098.167-.023.06-.035.123-.035.186v2.711c0 1.599.621 3.132 1.726 4.263.882.901 2.072 1.411 3.306 1.411h.803c.58 0 1.146-.108 1.664-.318.518-.21.984-.518 1.37-.904.386-.387.693-.853.903-1.371.21-.518.318-1.084.318-1.664v-1.605c0 1.015.395 1.995 1.1 2.718.704.723 1.684 1.129 2.718 1.129h.803c.58 0 1.146-.108 1.664-.318.518-.21.984-.518 1.37-.904.386-.387.693-.853.903-1.371.21-.518.318-1.084.318-1.664v-1.605c0 2.273-1.631 4.25-3.806 4.616-.872.146-1.764.146-2.636 0h-.803c-.562 0-1.116-.107-1.629-.316-.513-.209-.974-.515-1.356-.899-.382-.384-.688-.845-.897-1.358-.209-.513-.316-1.067-.316-1.629v-1.605z"/>
</svg>