<?xml version="1.0" encoding="UTF-8" standalone="no"?><!DOCTYPE svg PUBLIC "-//W3C//DTD SVG 1.1//EN" "http://www.w3.org/Graphics/SVG/1.1/DTD/svg11.dtd"><svg width="100%" height="100%" viewBox="0 0 2134 2134" version="1.1" xmlns="http://www.w3.org/2000/svg" xmlns:xlink="http://www.w3.org/1999/xlink" xml:space="preserve" xmlns:serif="http://www.serif.com/" style="fill-rule:evenodd;clip-rule:evenodd;stroke-linejoin:round;stroke-miterlimit:2;"><rect id="Artboard1" x="0" y="0" width="2133.333" height="2133.333" style="fill:none;"/><g id="Artboard11" serif:id="Artboard1"><path d="M1693.308,111.957l0,-84.682l-309.36,309.703l-0.101,287.495l101.844,-101.954l0,58.413l-257.315,257.32l-2.628,2.624l-122.764,122.764l-375.236,-375.236l0,-68.139l104.09,104.209l-0.101,-287.495l-309.356,-309.703l0,287.394l0.009,0.009l0,353.028l11.203,11.203l182.953,182.948l11.203,11.203l102.226,102.231l7.915,7.915l61.608,61.604l11.203,11.203l49.953,49.957l7.92,7.915l126.495,126.495l7.915,7.92l7.915,-7.92l1.42,-1.415l125.08,-125.08l7.911,-7.915l61.16,-61.16l11.203,-11.198l168.019,-168.019l11.203,-11.198l186.684,-186.689l11.198,-11.203l0,-546.015l-1.468,1.468Z" style="fill:#fff;fill-rule:nonzero;"/><path d="M1067.959,1283.324l-7.915,-7.915l-126.495,-126.5l-7.92,-7.915l-14.93,-14.934l-182.953,-182.953l-11.203,-11.198l-194.156,-194.156l0,788.708l8.887,8.887l0,0.004l7.915,7.915l126.5,126.495l14.077,14.077l28.857,28.862l7.92,7.915l11.203,11.203l0,-504.056l55.552,55.561l7.92,7.915l108.278,108.274l0,504.056l194.156,194.156l0,-788.713l-11.203,-11.203l-14.49,-14.486Z" style="fill:#fff;fill-rule:nonzero;"/><path d="M1683.58,737.75l-272.566,272.566l-7.915,7.911l-85.425,85.429l-45.255,45.255l-126.495,126.5l-7.92,7.915l-14.486,14.486l-11.203,11.198l0,788.713l11.203,-11.198l194.156,-194.156l0,-504.056l168.014,-168.014l0,504.052l3.736,-3.731l7.467,-7.471l0.448,-0.444l35.019,-35.023l142.33,-142.33l0,-0.004l8.891,-8.882l11.194,-11.203l0,-788.708l-11.194,11.198Z" style="fill:#fff;fill-rule:nonzero;"/></g></svg>